<?xml version="1.0" encoding="UTF-8"?><svg id="Layer_1" xmlns="http://www.w3.org/2000/svg" xmlns:xlink="http://www.w3.org/1999/xlink" viewBox="531.94 139.58 302.23 488.83"><defs><style>.cls-1{fill:url(#linear-gradient);}.cls-2{fill:#f9ab00;}.cls-3{fill:#fff;}.cls-4{fill:#e37400;}.cls-5{fill:#2474d3;}.cls-6{fill:#1967d2;}.cls-7{opacity:.6;}.cls-8{fill:none;stroke:#fff;stroke-miterlimit:10;stroke-width:.5px;}</style><linearGradient id="linear-gradient" x1="9117.08" y1="2329.63" x2="9419.31" y2="2329.63" gradientTransform="translate(9951.25 2713.63) rotate(-180)" gradientUnits="userSpaceOnUse"><stop offset="0" stop-color="#185abc"/><stop offset="1" stop-color="#4285f4"/></linearGradient></defs><path class="cls-1" d="m820.99,567.84l-125.85,58.45c-5.99,2.78-12.89,2.83-18.92.13l-130.82-58.67c-8.19-3.67-13.46-11.81-13.46-20.79V162.36c0-12.58,10.2-22.78,22.78-22.78h256.67c12.58,0,22.78,10.2,22.78,22.78v384.82c0,8.87-5.14,16.93-13.18,20.66Z"/><g class="cls-7"><circle class="cls-6" cx="578.5" cy="365.25" r="3.58"/><circle class="cls-6" cx="596.42" cy="365.25" r="3.58"/><circle class="cls-6" cx="614.34" cy="365.25" r="3.58"/><circle class="cls-6" cx="632.26" cy="365.25" r="3.58"/><circle class="cls-6" cx="614.34" cy="347.33" r="3.58"/><circle class="cls-6" cx="632.26" cy="347.33" r="3.58"/><circle class="cls-6" cx="614.34" cy="329.41" r="3.58"/><circle class="cls-6" cx="632.26" cy="329.41" r="3.58"/><circle class="cls-5" cx="766.66" cy="440.38" r="3.58"/><circle class="cls-5" cx="784.58" cy="440.38" r="3.58"/><circle class="cls-5" cx="766.66" cy="422.46" r="3.58"/><circle class="cls-5" cx="784.58" cy="422.46" r="3.58"/><circle class="cls-5" cx="802.5" cy="440.38" r="3.58"/><circle class="cls-5" cx="820.42" cy="440.38" r="3.58"/><circle class="cls-5" cx="802.5" cy="422.46" r="3.58"/><circle class="cls-5" cx="820.42" cy="422.46" r="3.58"/><circle class="cls-5" cx="766.66" cy="404.54" r="3.58"/><circle class="cls-5" cx="784.58" cy="404.54" r="3.58"/><circle class="cls-5" cx="802.5" cy="404.54" r="3.58"/><circle class="cls-5" cx="820.42" cy="404.54" r="3.58"/><circle class="cls-6" cx="542.65" cy="365.25" r="3.58"/><circle class="cls-6" cx="560.57" cy="365.25" r="3.58"/><circle class="cls-6" cx="578.5" cy="437.22" r="3.58"/><circle class="cls-6" cx="596.42" cy="437.22" r="3.58"/><circle class="cls-6" cx="578.5" cy="419.3" r="3.58"/><circle class="cls-6" cx="596.42" cy="419.3" r="3.58"/><circle class="cls-6" cx="614.34" cy="437.22" r="3.58"/><circle class="cls-6" cx="632.26" cy="437.22" r="3.58"/><circle class="cls-6" cx="614.34" cy="419.3" r="3.58"/><circle class="cls-6" cx="632.26" cy="419.3" r="3.58"/><circle class="cls-6" cx="578.5" cy="401.38" r="3.58"/><circle class="cls-6" cx="596.42" cy="401.38" r="3.58"/><circle class="cls-6" cx="578.5" cy="383.45" r="3.58"/><circle class="cls-6" cx="596.42" cy="383.45" r="3.58"/><circle class="cls-6" cx="614.34" cy="401.38" r="3.58"/><circle class="cls-6" cx="632.26" cy="401.38" r="3.58"/><circle class="cls-6" cx="614.34" cy="383.45" r="3.58"/><circle class="cls-6" cx="632.26" cy="383.45" r="3.58"/><circle class="cls-5" cx="766.66" cy="512.35" r="3.58"/><circle class="cls-5" cx="784.58" cy="512.35" r="3.58"/><circle class="cls-5" cx="766.66" cy="494.43" r="3.58"/><circle class="cls-5" cx="784.58" cy="494.43" r="3.58"/><circle class="cls-5" cx="802.5" cy="512.35" r="3.58"/><circle class="cls-5" cx="820.42" cy="512.35" r="3.58"/><circle class="cls-5" cx="802.5" cy="494.43" r="3.58"/><circle class="cls-5" cx="820.42" cy="494.43" r="3.58"/><circle class="cls-5" cx="766.66" cy="476.51" r="3.58"/><circle class="cls-5" cx="784.58" cy="476.51" r="3.58"/><circle class="cls-5" cx="766.66" cy="458.58" r="3.58"/><circle class="cls-5" cx="784.58" cy="458.58" r="3.58"/><circle class="cls-5" cx="802.5" cy="476.51" r="3.58"/><circle class="cls-5" cx="820.42" cy="476.51" r="3.58"/><circle class="cls-5" cx="802.5" cy="458.58" r="3.58"/><circle class="cls-5" cx="820.42" cy="458.58" r="3.58"/><circle class="cls-6" cx="578.5" cy="455.14" r="3.58"/><circle class="cls-6" cx="596.42" cy="455.14" r="3.58"/><circle class="cls-6" cx="614.34" cy="455.14" r="3.58"/><circle class="cls-6" cx="632.26" cy="455.14" r="3.58"/><circle class="cls-5" cx="766.66" cy="530.27" r="3.58"/><circle class="cls-5" cx="784.58" cy="530.27" r="3.58"/><circle class="cls-5" cx="802.5" cy="530.27" r="3.58"/><circle class="cls-5" cx="820.42" cy="530.27" r="3.58"/><circle class="cls-6" cx="542.65" cy="437.22" r="3.58"/><circle class="cls-6" cx="560.57" cy="437.22" r="3.58"/><circle class="cls-6" cx="542.65" cy="419.3" r="3.58"/><circle class="cls-6" cx="560.57" cy="419.3" r="3.58"/><circle class="cls-6" cx="542.65" cy="401.38" r="3.58"/><circle class="cls-6" cx="560.57" cy="401.38" r="3.58"/><circle class="cls-6" cx="542.65" cy="383.45" r="3.58"/><circle class="cls-6" cx="560.57" cy="383.45" r="3.58"/><circle class="cls-6" cx="578.5" cy="347.47" r="3.58"/><circle class="cls-6" cx="596.42" cy="347.47" r="3.58"/><circle class="cls-6" cx="578.5" cy="329.55" r="3.58"/><circle class="cls-6" cx="596.42" cy="329.55" r="3.58"/><circle class="cls-6" cx="542.65" cy="347.47" r="3.58"/><circle class="cls-6" cx="560.57" cy="347.47" r="3.58"/><circle class="cls-6" cx="542.65" cy="329.55" r="3.58"/><circle class="cls-6" cx="560.57" cy="329.55" r="3.58"/><circle class="cls-6" cx="614.34" cy="311.63" r="3.58"/><circle class="cls-6" cx="632.26" cy="311.63" r="3.58"/><circle class="cls-6" cx="614.34" cy="293.71" r="3.58"/><circle class="cls-6" cx="632.26" cy="293.71" r="3.58"/><circle class="cls-6" cx="578.5" cy="311.77" r="3.58"/><circle class="cls-6" cx="596.42" cy="311.77" r="3.58"/><circle class="cls-6" cx="578.5" cy="293.85" r="3.58"/><circle class="cls-6" cx="596.42" cy="293.85" r="3.58"/><circle class="cls-6" cx="542.65" cy="311.77" r="3.58"/><circle class="cls-6" cx="560.57" cy="311.77" r="3.58"/><circle class="cls-6" cx="542.65" cy="293.85" r="3.58"/><circle class="cls-6" cx="560.57" cy="293.85" r="3.58"/><circle class="cls-6" cx="542.65" cy="455.14" r="3.58"/><circle class="cls-6" cx="560.57" cy="455.14" r="3.58"/></g><path class="cls-4" d="m834.17,210.25l-139.03,64.58c-5.99,2.78-12.89,2.83-18.92.13l-144.28-64.7v-47.89c0-12.58,10.2-22.78,22.78-22.78h256.67c12.58,0,22.78,10.2,22.78,22.78v47.89Z"/><path class="cls-2" d="m674.24,221.46l8.77,8.77,8.77-8.77h12.43v-12.38l8.77-8.77-8.77-8.77v-12.43h-12.38l-8.82-8.77-2.28,2.28-4.57,4.57h0l-1.86,1.86h-12.38v12.43l-8.77,8.77h0l6.91,6.91h0l1.86,1.86v12.38h9.67l2.66.05Z"/><path class="cls-4" d="m700.33,200.31c0,9.56-7.76,17.32-17.32,17.32s-17.32-7.76-17.32-17.32,7.76-17.32,17.32-17.32h0c9.56,0,17.32,7.76,17.32,17.32Z"/><rect class="cls-3" x="674.93" y="198.63" width="16.36" height="2.44" transform="translate(312.21 807.32) rotate(-74.9)"/><path class="cls-3" d="m677.03,194.29l1.81,1.59-3.56,3.98,3.56,3.98-1.81,1.65-5.05-5.58,5.05-5.63Z"/><path class="cls-3" d="m688.98,194.23l5.05,5.63-5.05,5.58-1.81-1.59,3.56-3.98-3.56-3.98,1.81-1.65Z"/><path class="cls-3" d="m567.1,419.72c-1.1-.5-2.08-1.23-2.86-2.15-.85-.98-1.46-2.14-1.79-3.4l2.61-1.05c.36,1.31,1.11,2.48,2.15,3.36.93.87,2.15,1.34,3.42,1.33,1.23.04,2.44-.34,3.42-1.08.89-.71,1.38-1.81,1.31-2.95.02-1.03-.42-2.01-1.21-2.67-1.15-.89-2.46-1.56-3.85-1.96l-1.4-.5c-1.47-.48-2.84-1.26-4-2.28-1.06-1.01-1.63-2.42-1.57-3.88,0-1.08.31-2.14.9-3.04.62-.93,1.47-1.67,2.48-2.15,2.24-1.05,4.84-1.05,7.08,0,.91.43,1.72,1.05,2.39,1.81.54.63.95,1.36,1.21,2.15l-2.54,1.1c-.26-.85-.78-1.61-1.49-2.15-.85-.66-1.91-1-2.99-.95-1.09-.04-2.16.32-3.01.99-.73.53-1.19,1.34-1.27,2.24,0,.85.4,1.65,1.08,2.15.97.71,2.05,1.25,3.21,1.59l1.49.52c1.69.57,3.25,1.47,4.59,2.65,1.13,1.14,1.73,2.7,1.66,4.31.07,1.38-.34,2.74-1.14,3.85-.75.96-1.75,1.71-2.88,2.15-1.15.47-2.38.71-3.62.71-1.16,0-2.3-.24-3.36-.71Z"/><path class="cls-3" d="m582.43,418.71c-1.09-1.33-1.64-3.02-1.53-4.74v-10.03h2.73v9.58c0,2.93,1.31,4.41,3.96,4.41.84,0,1.66-.26,2.35-.75.7-.48,1.26-1.14,1.61-1.92.37-.79.56-1.65.56-2.52v-8.81h2.63v15.95h-2.58v-2.33h-.13c-.51.9-1.26,1.64-2.15,2.15-.93.55-2,.84-3.08.84-1.66.04-3.25-.63-4.37-1.85Z"/><path class="cls-3" d="m598.86,403.94h2.61v2.37h.13c.5-.88,1.25-1.59,2.15-2.05.88-.54,1.89-.83,2.93-.84,1.09-.03,2.17.26,3.1.84.85.57,1.51,1.39,1.87,2.35.58-.95,1.38-1.74,2.33-2.33.98-.59,2.11-.89,3.25-.86,1.62-.14,3.22.49,4.31,1.7.93,1.38,1.36,3.04,1.21,4.69v10.08h-2.73v-9.64c.12-1.19-.2-2.38-.88-3.36-.71-.72-1.71-1.08-2.71-.99-.78,0-1.53.25-2.15.71-.67.5-1.19,1.16-1.53,1.92-.37.79-.56,1.65-.56,2.52v8.85h-2.69v-9.64c.11-1.19-.21-2.38-.9-3.36-.72-.71-1.71-1.07-2.71-.99-.78,0-1.54.26-2.15.73-.66.51-1.17,1.18-1.51,1.94-.36.8-.55,1.66-.54,2.54v8.78h-2.73l-.06-15.95Z"/><path class="cls-3" d="m626.65,403.94h2.54v2.37h.13c.51-.88,1.25-1.59,2.15-2.05.87-.54,1.88-.83,2.91-.84,1.09-.03,2.17.26,3.1.84.86.56,1.52,1.38,1.87,2.35.58-.95,1.38-1.74,2.33-2.33.98-.59,2.11-.89,3.25-.86,1.62-.15,3.22.48,4.31,1.7,1.01,1.35,1.5,3.01,1.4,4.69v10.08h-2.73v-9.64c.12-1.19-.2-2.38-.88-3.36-.71-.72-1.71-1.08-2.71-.99-.78,0-1.53.25-2.15.71-.67.5-1.19,1.16-1.53,1.92-.41.8-.64,1.68-.67,2.58v8.85h-2.69v-9.71c.11-1.19-.21-2.38-.9-3.36-.72-.71-1.71-1.07-2.71-.99-.78,0-1.53.26-2.15.73-.66.51-1.17,1.18-1.51,1.94-.36.8-.55,1.66-.54,2.54v8.78h-2.73l-.06-15.95Z"/><path class="cls-3" d="m657.41,419.31c-1.21-.73-2.19-1.78-2.84-3.04-.7-1.33-1.05-2.81-1.03-4.31-.02-1.49.31-2.97.97-4.31.6-1.23,1.52-2.27,2.67-3.01,1.22-.78,2.64-1.18,4.09-1.14,1.43-.03,2.83.33,4.07,1.03,1.16.7,2.1,1.73,2.69,2.95.63,1.35.95,2.82.93,4.31.03.21.03.43,0,.65h-12.64c0,1.05.3,2.08.86,2.97.49.79,1.18,1.43,2,1.85.77.4,1.63.62,2.5.62,2,0,3.83-1.15,4.67-2.97l2.41,1.16c-.66,1.26-1.64,2.33-2.84,3.1-2.63,1.52-5.87,1.52-8.5,0v.13Zm8.74-9.17c-.06-.68-.25-1.34-.56-1.94-.36-.68-.89-1.24-1.55-1.64-.84-.48-1.79-.71-2.76-.67-1.15-.02-2.26.4-3.12,1.16-.9.8-1.5,1.89-1.68,3.08h9.67Z"/><path class="cls-3" d="m672.25,403.94h2.61v2.61h.13c.35-.91,1-1.67,1.85-2.15.82-.57,1.78-.88,2.78-.9.64,0,1.27.1,1.87.32v2.93c-.7-.35-1.48-.52-2.26-.5-.77-.01-1.52.22-2.15.67-.66.45-1.19,1.06-1.55,1.77-.39.73-.59,1.54-.58,2.37v8.91h-2.69v-16.02Z"/><path class="cls-3" d="m694.42,419.29c-1.2-.74-2.17-1.8-2.8-3.06-.7-1.33-1.05-2.81-1.03-4.31-.01-1.5.34-2.98,1.03-4.31.68-1.26,1.68-2.32,2.91-3.06,1.31-.76,2.8-1.14,4.31-1.1,1.51-.03,3,.35,4.31,1.1,1.23.74,2.24,1.79,2.93,3.06.69,1.33,1.05,2.81,1.03,4.31.02,1.5-.34,2.98-1.03,4.31-.67,1.27-1.69,2.33-2.93,3.06-1.3.77-2.79,1.15-4.31,1.12-1.55.06-3.08-.33-4.41-1.12Zm6.93-2.15c.85-.52,1.55-1.26,2-2.15,1.01-1.99,1.01-4.34,0-6.33-.46-.88-1.15-1.63-2-2.15-.82-.49-1.76-.74-2.71-.73-.94,0-1.86.25-2.67.73-.85.52-1.55,1.26-2,2.15-.53.97-.79,2.06-.75,3.16-.03,1.1.23,2.19.75,3.16.45.89,1.14,1.64,2,2.15.8.49,1.73.75,2.67.75.95.01,1.89-.23,2.71-.71v-.04Z"/><path class="cls-3" d="m711.32,406.41h-2.99v-2.48h2.99v-2.15c-.01-.94.22-1.87.69-2.69.44-.76,1.09-1.39,1.87-1.79.8-.42,1.7-.63,2.61-.62.44-.04.88-.04,1.31,0,.36.08.71.18,1.05.3v2.67c-.7-.35-1.48-.52-2.26-.52-.68,0-1.33.26-1.81.75-.53.59-.8,1.36-.73,2.15v1.94h4.11v2.48h-4.11v13.48h-2.73v-13.52Z"/><path class="cls-3" d="m733.45,418.84c-1.8-1.02-3.29-2.51-4.31-4.31-1.05-1.86-1.6-3.97-1.57-6.11-.03-2.14.51-4.25,1.57-6.11,1.01-1.8,2.5-3.29,4.31-4.31,1.84-1.06,3.93-1.6,6.05-1.57,1.63-.03,3.25.31,4.74.99,1.42.63,2.68,1.58,3.68,2.78l-1.92,1.89c-.77-.98-1.76-1.78-2.88-2.33-1.14-.51-2.37-.76-3.62-.73-1.6-.02-3.17.39-4.56,1.18-1.4.77-2.55,1.91-3.34,3.29-.84,1.51-1.26,3.22-1.23,4.95-.04,1.72.39,3.43,1.23,4.93.78,1.39,1.94,2.54,3.34,3.32,1.39.79,2.96,1.2,4.56,1.18,2.78,0,5.41-1.27,7.15-3.44l1.96,1.92c-1.07,1.28-2.41,2.31-3.92,3.01-1.62.76-3.4,1.14-5.19,1.12-2.13-.01-4.21-.58-6.05-1.66Z"/><path class="cls-3" d="m754.34,419.29c-1.24-.72-2.25-1.78-2.91-3.06-.71-1.32-1.08-2.8-1.05-4.31-.02-1.5.35-2.98,1.05-4.31.67-1.27,1.68-2.32,2.91-3.06,2.62-1.47,5.82-1.47,8.44,0,1.24.73,2.25,1.79,2.93,3.06.7,1.33,1.06,2.81,1.05,4.31.01,1.5-.35,2.98-1.05,4.31-.66,1.28-1.68,2.34-2.93,3.06-2.62,1.47-5.82,1.47-8.44,0Zm6.91-2.15c.86-.52,1.56-1.26,2.02-2.15,1.01-1.99,1.01-4.34,0-6.33-.47-.89-1.17-1.63-2.02-2.15-.81-.48-1.74-.74-2.69-.73-.94,0-1.86.25-2.67.73-.85.52-1.55,1.27-2.02,2.15-1.01,1.99-1.01,4.34,0,6.33.46.89,1.16,1.63,2.02,2.15.8.49,1.73.75,2.67.75.94.01,1.87-.23,2.69-.71v-.04Z"/><path class="cls-3" d="m772.74,419.31c-1.18-.75-2.14-1.8-2.78-3.04-1.34-2.71-1.34-5.9,0-8.61.63-1.25,1.59-2.3,2.78-3.04,1.13-.73,2.45-1.11,3.79-1.1,1.17-.03,2.32.25,3.34.82.88.48,1.63,1.19,2.15,2.05h.13l-.13-2.15v-7.38h2.69v23.04h-2.56v-2.33h-.11c-.52.89-1.26,1.64-2.15,2.15-1.02.55-2.17.84-3.34.82-1.36-.02-2.69-.45-3.81-1.23Zm6.82-2.15c.84-.52,1.51-1.26,1.94-2.15.5-.99.75-2.08.73-3.19.02-1.11-.23-2.2-.73-3.19-.43-.88-1.1-1.63-1.94-2.15-.79-.47-1.7-.72-2.63-.71-.92,0-1.82.25-2.61.73-.83.52-1.51,1.27-1.94,2.15-.98,2-.98,4.33,0,6.33.43.89,1.1,1.64,1.94,2.15.78.49,1.68.75,2.61.75.92.01,1.83-.23,2.63-.69v-.04Z"/><path class="cls-3" d="m791.65,419.31c-1.22-.73-2.21-1.78-2.86-3.04-.69-1.33-1.04-2.81-1.01-4.31-.03-1.49.3-2.97.95-4.31.63-1.24,1.58-2.28,2.76-3.01,1.23-.78,2.66-1.18,4.11-1.14,1.42-.03,2.83.33,4.07,1.03,1.16.7,2.09,1.72,2.67,2.95.64,1.34.96,2.82.95,4.31.03.21.03.43,0,.65h-12.68c0,1.07.3,2.12.86,3.04.49.79,1.19,1.43,2.02,1.85.77.41,1.63.62,2.5.62,2,0,3.82-1.16,4.65-2.97l2.41,1.16c-.66,1.26-1.64,2.33-2.84,3.1-2.62,1.52-5.86,1.52-8.48,0l-.06.06Zm8.61-9.17c-.05-.68-.23-1.33-.54-1.94-.36-.68-.9-1.25-1.57-1.64-.83-.48-1.78-.71-2.73-.67-1.15-.02-2.26.4-3.12,1.16-.9.8-1.5,1.89-1.68,3.08h9.64Z"/><path class="cls-3" d="m642.84,350.11h.95c3.31.06,6.47,1.4,8.83,3.72-.84.88-1.72,1.72-2.56,2.58-3.88-3.67-10-3.5-13.67.38,0,0,0,0,0,0-3.39,3.66-3.56,9.25-.41,13.11,1.71,2.05,4.2,3.29,6.87,3.42,2.53.19,5.03-.66,6.91-2.37,1.36-1.3,2.18-3.06,2.3-4.93h-8.87v-3.68h12.57c.81,4.05-.42,8.24-3.29,11.22-2.05,1.98-4.73,3.19-7.58,3.4-2.75.29-5.53-.26-7.97-1.57-2.97-1.54-5.27-4.12-6.46-7.26-1.04-2.88-1.04-6.03,0-8.91.93-2.6,2.64-4.85,4.89-6.46,2.19-1.6,4.79-2.52,7.49-2.67Z"/><path class="cls-3" d="m714.36,351.03h3.83v25.49h-3.83c.02-8.5,0-16.99,0-25.49Z"/><path class="cls-3" d="m664.22,359.86c2.39-.46,4.87.07,6.87,1.46,1.77,1.28,2.98,3.21,3.36,5.36.97,4.66-2.03,9.22-6.68,10.18,0,0,0,0-.01,0-3.34.7-6.79-.59-8.85-3.32-1.69-2.34-2.14-5.37-1.18-8.09,1.01-2.88,3.47-5.01,6.46-5.6m.54,3.4c-.98.25-1.85.81-2.5,1.59-1.73,2.19-1.6,5.32.3,7.36,1.12,1.14,2.74,1.64,4.31,1.31,1.42-.27,2.64-1.16,3.32-2.43,1.21-2.2.82-4.94-.97-6.72-1.17-1.06-2.77-1.47-4.31-1.12h-.15Z"/><path class="cls-3" d="m683.15,359.86c4.61-1.15,9.29,1.66,10.44,6.27.68,2.71,0,5.58-1.83,7.7-3.11,3.76-8.68,4.29-12.44,1.18-2.84-2.37-3.86-6.28-2.52-9.73,1.04-2.83,3.5-4.89,6.46-5.43m.5,3.4c-.97.25-1.85.8-2.5,1.57-1.7,2.13-1.65,5.17.13,7.23,1.11,1.16,2.73,1.69,4.31,1.4,1.41-.29,2.63-1.17,3.34-2.43,1.17-2.2.78-4.9-.97-6.67-1.17-1.05-2.78-1.47-4.31-1.1Z"/><path class="cls-3" d="m699.19,360.89c2.09-1.36,4.73-1.55,7-.52.69.33,1.31.78,1.83,1.33v-1.49h3.72v15.74c.1,2.42-.74,4.79-2.35,6.61-1.96,1.84-4.68,2.64-7.32,2.15-2.8-.47-5.16-2.35-6.24-4.97,1.05-.52,2.15-.93,3.29-1.42.59,1.52,1.89,2.66,3.49,3.01,1.64.37,3.34-.19,4.46-1.44.92-1.45,1.29-3.17,1.05-4.87-.79.85-1.79,1.46-2.91,1.79-2.53.61-5.2-.08-7.13-1.83-3.64-3.21-3.99-8.76-.78-12.4,0,0,0,0,0,0,.58-.65,1.24-1.22,1.98-1.68m3.7,2.3c-1.1.18-2.1.75-2.8,1.61-1.69,2.08-1.69,5.07,0,7.15.98,1.18,2.48,1.8,4,1.66,1.38-.22,2.57-1.07,3.23-2.3,1.2-2.16.96-4.83-.6-6.74-1-1.15-2.53-1.69-4.03-1.42l.19.04Z"/><path class="cls-3" d="m722.76,361.82c2.22-2.02,5.38-2.65,8.2-1.64,2.52,1.14,4.39,3.36,5.1,6.03l-11.6,4.8c.5,1.05,1.37,1.87,2.45,2.3,1.58.6,3.36.35,4.71-.67.5-.41.95-.89,1.33-1.42l2.93,1.98c-2.7,3.99-8.12,5.03-12.11,2.33,0,0,0,0-.01,0-.62-.41-1.18-.9-1.66-1.46-2.97-3.64-2.69-8.94.65-12.25m1.89,3.29c-.58.89-.88,1.93-.84,2.99l7.77-3.23c-.49-.97-1.44-1.63-2.52-1.77-1.7-.2-3.36.58-4.31,2h-.11Z"/><line class="cls-8" x1="594.15" y1="458.61" x2="771.59" y2="458.61"/></svg>
